# xmcd
#
# Track frame offsets: 
#        150
#        19147
#        33044
#        52363
#        68321
#        87545
#        104227
#        120541
#        142867
#        159786
#
# Disc length: 2476 seconds
#
# Revision: 0
# Processed by: cddbd v1.5.2PL0 Copyright (c) Steve Scherf et al.
# Submitted via: ExactAudioCopy v1.0b3
#
DISCID=7d09aa0a
DTITLE=Cannonball Adderley All-Stars - Modern CD065  Hard Bop - Cannon
DTITLE=ball Adderley vol.2
DYEAR=1955
DGENRE=Jazz
TTITLE0=The Song Is You
TTITLE1=Cynthia's In Love
TTITLE2=Hurricane Connie
TTITLE3=Purple Shades
TTITLE4=Cannonball
TTITLE5=(Nat's) Everglade
TTITLE6=You'd Be So Nice To Come Home To
TTITLE7=Willows
TTITLE8=Fallen Feathers (The Bird)
TTITLE9=Rose Room
EXTD=Encyclopedia of Jazz - box set #5 - Modern Jazz - New York 1955
EXTT0=
EXTT1=
EXTT2=
EXTT3=
EXTT4=
EXTT5=
EXTT6=
EXTT7=
EXTT8=
EXTT9=
PLAYORDER=
